PathFileType	4	(X/Y/Z)	/Volumes/GoogleDrive/My Drive/Research/Stanford/Projects/Digital Athlete Project/Sprinting/Sprint Simulation/sprinter/subjects/JA1/experimental_data/TRC/run0700cms.trc
DataRate	CameraRate	NumFrames	NumMarkers	Units	OrigDataRate	OrigDataStartFrame	OrigNumFrames
250.000000	250.000000	5	51	mm	250.000000	362	413
Frame#	Time	LPAT			RWR			LASI			LMFS			C7			LSH			RSH			RTHLD			T7			RTHLP			RARM			LLEPI			LLMAL			P3			RELB			RFOREARM			SACR			P1			P2			RTILAT			RTHAP			LTHLP			RLEPI			RPAT			LTIAD			LFOREARM			RLMAL			RP5MT			LTHLD			RMFL			LARM			LMFL			LTOE			RTHAD			MAN			RTOE			LTILAT			LHEEL			RHEEL			RMFS			LELB			RP1MT			RTIAP			LWR			RASI			LTHAP			LTHAD			LTIAP			RTIAD			LP5MT			LP1MT			
		X1	Y1	Z1	X2	Y2	Z2	X3	Y3	Z3	X4	Y4	Z4	X5	Y5	Z5	X6	Y6	Z6	X7	Y7	Z7	X8	Y8	Z8	X9	Y9	Z9	X10	Y10	Z10	X11	Y11	Z11	X12	Y12	Z12	X13	Y13	Z13	X14	Y14	Z14	X15	Y15	Z15	X16	Y16	Z16	X17	Y17	Z17	X18	Y18	Z18	X19	Y19	Z19	X20	Y20	Z20	X21	Y21	Z21	X22	Y22	Z22	X23	Y23	Z23	X24	Y24	Z24	X25	Y25	Z25	X26	Y26	Z26	X27	Y27	Z27	X28	Y28	Z28	X29	Y29	Z29	X30	Y30	Z30	X31	Y31	Z31	X32	Y32	Z32	X33	Y33	Z33	X34	Y34	Z34	X35	Y35	Z35	X36	Y36	Z36	X37	Y37	Z37	X38	Y38	Z38	X39	Y39	Z39	X40	Y40	Z40	X41	Y41	Z41	X42	Y42	Z42	X43	Y43	Z43	X44	Y44	Z44	X45	Y45	Z45	X46	Y46	Z46	X47	Y47	Z47	X48	Y48	Z48	X49	Y49	Z49	X50	Y50	Z50	X51	Y51	Z51	
362	1.448000	5114.845703	747.301880	212.679184	4977.258301	1423.424438	406.520782	4757.736328	1005.972839	160.830261	5099.731934	228.718414	246.845184	4615.845215	1480.586304	274.187866	4625.640137	1472.079224	106.061913	4675.656738	1480.728027	425.426575	4506.791504	663.745056	431.867371	4568.710449	1287.428711	288.074463	4560.291016	761.817993	454.879303	4747.328613	1323.429688	533.093140	5037.904297	694.808960	153.204987	4994.312012	244.716537	202.110168	4540.560547	986.335144	281.162598	4798.214355	1208.679565	591.704529	4872.778320	1300.282593	512.807861	4589.641113	1065.043579	277.023285	4572.292480	1033.964844	226.491714	4574.883789	1041.588867	332.973999	4212.600586	437.520874	395.608307	4648.669434	686.062073	365.011047	4853.101074	808.141113	100.544083	4413.305664	550.860962	395.841125	4476.206055	491.619720	337.901276	5043.899902	391.647125	242.630600	4359.340332	1133.304932	-0.089506	4018.514404	299.461914	363.235535	3961.029297	140.375656	374.112061	4955.118652	762.307373	123.531799	3991.729248	220.845825	361.829590	4494.311523	1361.560181	18.431580	5061.985352	202.107376	188.307236	5181.983887	184.837784	232.310867	4585.688477	610.023376	345.345337	4762.261719	1399.278198	241.777145	4026.180664	112.693130	299.611664	5013.872559	461.615448	165.146072	4930.441895	217.617111	257.320618	3976.114258	357.265228	313.910736	4039.038574	194.118774	308.781464	4377.770508	1283.154785	-6.910434	4004.062012	133.030380	257.083282	4246.309570	406.858734	316.861877	4302.808594	944.469238	15.045732	4764.999512	989.017578	372.831757	4918.214844	917.818909	176.360489	5014.660156	857.457153	184.939621	5066.707031	529.763977	232.416229	4134.895996	342.621887	306.045898	5120.225586	155.107010	157.754089	5158.060059	168.357224	274.215820
363	1.452000	5139.377441	743.305176	212.361252	4997.785645	1432.461670	405.592682	4786.079102	1006.293030	160.368744	5151.877441	225.498459	247.712616	4642.603027	1483.078125	274.883942	4652.980469	1473.425659	106.425400	4704.452637	1482.326782	425.180847	4535.487793	664.432129	431.978821	4597.050293	1288.127563	288.286438	4589.459961	762.110229	455.439392	4776.878906	1325.075195	532.662354	5062.778320	689.162903	153.338501	5046.253906	236.105225	202.452911	4569.033203	987.132813	282.436859	4828.024902	1210.563721	591.130615	4898.737305	1304.970093	511.966492	4617.765137	1065.752930	277.873962	4600.583496	1034.440430	227.430115	4603.632324	1042.467896	333.901062	4235.600098	447.247375	395.214355	4676.520508	687.396484	363.840454	4879.695312	805.100159	101.570236	4440.268066	553.353210	395.235718	4502.280762	492.719360	337.654602	5086.304199	385.974243	242.700745	4384.641113	1137.124390	1.008728	4036.747314	316.034210	362.995148	3977.508789	157.060028	374.966034	4980.902832	757.787170	124.609810	4009.270264	237.836334	362.208893	4520.625977	1364.509521	20.168709	5115.997070	196.636047	189.144394	5236.341797	186.280182	233.890198	4613.416992	611.607361	344.043549	4790.245605	1400.487305	241.265121	4040.452881	127.784592	300.129608	5052.082520	453.743286	164.761871	4983.452148	205.728317	257.347076	3994.612061	374.134125	313.984222	4055.814209	210.345917	308.774628	4403.164551	1287.212402	-4.652890	4019.501465	149.205582	257.781769	4268.190430	415.508118	316.024445	4328.213379	948.039124	15.554662	4793.697266	989.835754	372.433563	4945.601562	913.734741	178.609970	5040.944336	852.043396	186.539429	5100.682617	525.152954	232.131699	4154.394531	355.785858	305.422729	5176.945801	152.798233	159.304459	5213.693359	168.524826	275.805115
364	1.456000	5163.262695	738.362000	211.943878	5018.430664	1440.040039	404.973969	4815.013184	1006.842468	159.916061	5203.174805	223.167084	248.444061	4671.567383	1484.277466	274.675873	4680.514160	1474.643555	106.817589	4732.958496	1484.040527	425.003082	4564.478027	664.895447	432.061890	4625.139648	1288.846680	288.483398	4618.643555	762.288635	455.863007	4805.865234	1326.347656	532.192688	5087.658691	682.700806	153.113663	5097.456543	228.071335	202.571487	4597.143066	987.785645	283.527985	4857.121582	1212.117432	590.570435	4924.377930	1308.890503	511.270477	4646.038574	1066.364502	278.514099	4628.601074	1034.867676	228.110794	4632.057129	1043.073608	334.472626	4258.998047	457.511230	394.594818	4704.835449	688.567322	363.136749	4905.829102	801.377625	102.742088	4467.933594	555.518616	394.798798	4528.796387	493.098633	337.647339	5127.914062	380.432159	242.665237	4410.355469	1140.439209	1.989409	4055.638916	332.695526	362.443695	3993.953613	174.882996	375.556122	5005.744141	752.471863	125.443848	4027.148438	255.171112	362.459412	4546.951172	1366.988892	21.991926	5169.279297	192.164185	189.803925	5289.013184	188.294083	235.575211	4641.729980	612.637573	343.222198	4818.292969	1401.218628	240.921570	4056.207520	144.045349	300.521362	5089.568359	445.840759	164.380188	5035.790527	194.761002	257.205719	4014.715332	391.711090	313.783844	4072.944092	226.587128	308.964722	4428.883301	1290.685669	-2.434227	4035.565430	166.087509	258.349121	4290.970703	423.977142	316.207092	4354.108887	951.122314	15.858711	4822.551758	990.641785	372.180298	4973.162598	908.726807	180.883865	5067.219238	845.466797	187.690842	5133.921875	520.257080	231.906174	4175.123047	368.539948	304.887390	5232.365723	151.157730	160.728165	5267.459961	169.407944	277.360321
365	1.460000	5186.989746	732.596619	211.473419	5040.013672	1446.038086	404.595337	4842.842773	1007.056396	159.794235	5252.980957	221.406693	249.073318	4700.503418	1485.492676	274.500610	4708.019531	1475.896606	107.096924	4761.656250	1485.566528	424.771057	4593.589355	665.194519	432.268158	4653.300781	1289.498413	288.542755	4647.916504	762.458069	456.148407	4837.450195	1328.152954	531.301880	5111.631836	675.402527	153.205521	5147.132812	220.440659	202.807419	4625.330078	988.291626	284.551880	4885.843750	1213.354004	590.096375	4950.362793	1312.121704	510.686615	4674.151367	1066.904663	278.909729	4656.487305	1035.161133	228.738678	4660.409668	1043.603760	335.327393	4283.165527	467.923004	393.868774	4733.434082	689.454895	362.950500	4931.565918	797.568604	103.805832	4496.094238	557.288208	394.409729	4555.762207	492.825256	337.801605	5168.591797	375.002472	242.513290	4436.624512	1143.234375	3.033801	4075.794189	349.686798	361.974976	4010.532959	193.841110	376.147247	5029.974121	746.724670	125.529243	4044.984863	273.157745	362.580719	4573.319824	1369.110474	23.992506	5221.276367	188.339218	190.422256	5340.321289	191.227539	237.175919	4670.832520	613.267578	343.305450	4845.904785	1402.472168	240.653198	4072.093506	161.073105	301.287354	5126.506348	437.745422	164.005615	5087.386230	184.725418	256.915649	4036.581543	409.704407	313.428680	4090.619873	243.082199	309.374542	4455.181641	1293.694702	-0.272358	4052.144287	183.586609	258.954437	4314.534668	431.884094	316.403015	4380.551270	953.698792	15.976604	4851.139648	991.495728	372.012451	5000.960938	902.847168	182.583282	5093.413574	837.902466	188.638306	5166.065918	514.889099	231.808578	4196.703125	381.331909	304.837067	5286.534180	150.486145	162.029755	5319.987305	171.221085	278.897888
366	1.464000	5210.349609	725.964478	211.042297	5061.571777	1451.422607	404.650574	4870.447266	1007.360291	159.917770	5301.461914	220.388657	249.588242	4729.462402	1486.525757	274.404480	4735.729004	1477.038208	107.380112	4790.224609	1486.945557	424.635345	4622.726074	665.614319	432.572876	4681.416504	1290.181030	288.667633	4676.989258	762.778015	456.398376	4865.710449	1329.055176	530.858337	5135.904297	667.591614	152.895523	5196.127930	214.151123	202.616562	4653.593750	988.697815	285.176056	4913.797852	1214.206543	589.624451	4976.214355	1314.605591	510.158295	4702.252930	1067.180420	279.269196	4684.366699	1035.401245	229.257492	4688.469727	1043.963745	335.808990	4308.365723	478.088684	393.106903	4762.436523	690.119446	363.373230	4957.248047	794.208923	104.211128	4524.621582	558.658386	394.260193	4583.206055	492.194061	338.387695	5208.192383	369.704193	242.288635	4462.952637	1145.481689	4.279509	4096.792969	366.640015	361.612000	4026.987793	213.572357	376.657562	5054.120605	740.567383	125.868919	4063.710938	291.602417	363.153656	4600.263184	1370.827026	25.545275	5271.825195	185.379639	191.068390	5389.937500	194.726761	238.710251	4700.192871	613.421997	344.104126	4874.018066	1403.584595	240.318436	4087.980469	178.353775	302.727203	5162.879395	429.698608	163.751556	5137.733887	175.763931	256.325104	4059.565430	428.052216	312.093536	4108.789062	259.647125	310.199738	4481.493164	1296.075439	1.705244	4069.264160	201.112244	259.916473	4338.919434	439.380310	316.969666	4407.566406	955.770020	16.098398	4882.591797	992.976501	371.830170	5028.717285	896.494812	184.009979	5119.526855	829.614685	189.482651	5197.422363	509.202118	231.822510	4219.302246	393.656372	304.880249	5339.279297	150.566635	163.258316	5370.416016	173.696243	280.380554
